<?xml version="1.0" encoding="UTF-8"?>
<svg version="1.1" xmlns="http://www.w3.org/2000/svg" width="192" height="192">
<path d="M0 0 C18.90689962 15.58757033 33.11907613 37.23841444 36 62 C38.07547047 91.3505373 32.56815164 115.90370704 13.70703125 138.78125 C-2.30160634 157.07683582 -24.58260867 170.48550768 -49.21777344 172.22753906 C-78.86421276 173.54534277 -102.83351613 167.16129839 -125.375 147.4375 C-143.3726075 130.57017703 -155.27669608 108.17320354 -156.3828125 83.2890625 C-157.11886896 53.81089907 -149.54623447 29.94720637 -129.1640625 8.19921875 C-94.60358381 -26.92271176 -38.61104408 -30.2283832 0 0 Z " fill="#FF6F00" transform="translate(156,20)"/>
<path d="M0 0 C1.50390625 1.234375 1.50390625 1.234375 2.50390625 2.234375 C2.5912827 4.08807111 2.61088778 5.94505041 2.6015625 7.80078125 C2.59672852 9.4878418 2.59672852 9.4878418 2.59179688 11.20898438 C2.57922852 12.98499023 2.57922852 12.98499023 2.56640625 14.796875 C2.56189453 15.98474609 2.55738281 17.17261719 2.55273438 18.39648438 C2.54090311 21.34246912 2.52296701 24.28842816 2.50390625 27.234375 C-1.78609375 27.234375 -6.07609375 27.234375 -10.49609375 27.234375 C-11.43535962 23.47731151 -11.52778276 20.57254397 -11.55859375 16.734375 C-11.73416952 12.14286457 -11.73416952 12.14286457 -14.19921875 8.53125 C-16.30164037 7.48782594 -18.21860755 6.79212672 -20.49609375 6.234375 C-21.36234375 5.95787109 -21.36234375 5.95787109 -22.24609375 5.67578125 C-30.52238036 4.05213474 -41.14962116 3.80209744 -48.6484375 7.9921875 C-49.25816406 8.40210937 -49.86789063 8.81203125 -50.49609375 9.234375 C-51.11613281 9.62367187 -51.73617187 10.01296875 -52.375 10.4140625 C-60.59564558 16.41531132 -64.09504961 27.07203632 -66.02734375 36.6875 C-68.25682025 53.55720553 -66.00981372 69.57515435 -56.68359375 84.046875 C-49.53524676 91.19522199 -41.62457461 93.28634364 -31.74609375 93.546875 C-24.99646756 93.46669586 -18.92788775 92.21338854 -12.49609375 90.234375 C-12.43550781 89.33074219 -12.37492187 88.42710937 -12.3125 87.49609375 C-12.18681641 85.72685547 -12.18681641 85.72685547 -12.05859375 83.921875 C-11.93677734 82.16423828 -11.93677734 82.16423828 -11.8125 80.37109375 C-11.49609375 77.234375 -11.49609375 77.234375 -10.49609375 74.234375 C-6.20609375 74.234375 -1.91609375 74.234375 2.50390625 74.234375 C2.50390625 82.814375 2.50390625 91.394375 2.50390625 100.234375 C-15.14675762 107.68327902 -33.77812841 112.20411104 -52.49609375 105.234375 C-64.09912524 100.2955676 -73.38372586 91.86279562 -78.49609375 80.234375 C-86.09801288 60.63394208 -86.52405739 37.61871575 -78.2109375 18.23828125 C-72.28914351 6.34520752 -63.16786495 -2.49418031 -51.01953125 -7.859375 C-34.37007211 -13.42637682 -14.07679089 -10.36393713 0 0 Z " fill="#FFFCFB" transform="translate(136.49609375,46.765625)"/>
</svg>
